<svg xmlns="http://www.w3.org/2000/svg" version="1.1" viewBox="0 0 3640.75 2667.74" style="fill: rgb(52, 52, 52);" role="img" aria-label="Leaves Line Drawing">
 
  <path d="m2258.6 200.55c7.1 16.57 1.3 46.15 6.6 64.62-10.8-4.81-5.2-43.67-6.6-64.62" style="fill: inherit;"></path>
  <path d="m1380.3 202.2c7.2 16.37 2.1 48.15-1.6 64.63-0.7-16.18 0.2-45.08 1.6-64.63" style="fill: inherit;"></path>
  <path d="m2334.8 232.04c-0.9 25.08-14.1 52.21-19.9 77.87 0.4-25.53 14.2-52.09 19.9-77.87" style="fill: inherit;"></path>
  <path d="m1305.8 233.68c10.4 22.11 15.8 49.37 23.2 74.58-11.6-21.01-16.5-48.71-23.2-74.58" style="fill: inherit;"></path>
  <path d="m2281.8 339.74c7.4 121.4-14.3 241.88-19.9 361.24-5.9-118.85 19.1-237.09 19.9-361.24" style="fill: inherit;"></path>
  <path d="m1358.8 344.71c5.7 120.74 22.4 230.58 23.2 356.27-10.5-113.36-26-232.59-23.2-356.27" style="fill: inherit;"></path>
  <path d="m1463.2 349.68c-9.2 32.23-28.9 68.34-44.8 99.43-1.2-14.43 12.5-33.5 19.9-49.72 8.2-17.83 15.1-35.77 24.9-49.71" style="fill: inherit;"></path>
  <path d="m1378.7 377.85c13 75.17 15.8 168.11 13.2 253.53-7.4-81.45-7.8-170.04-13.2-253.53" style="fill: inherit;"></path>
  <path d="m2260.2 382.82c2.3 81.25-7.4 164.93-8.3 248.56-8.2-80.99 1.8-171.47 8.3-248.56" style="fill: inherit;"></path>
  <path d="m1209.7 522.02c54.4 41.66 98.7 93.44 130.9 157.41-38.3-57.81-83-109.27-130.9-157.41" style="fill: inherit;"></path>
  <path d="m2005 588.3c2.5 10.74 0.9 31.75-4.9 39.76-0.8-15.72 1.2-28.63 4.9-39.76" style="fill: inherit;"></path>
  <path d="m1635.5 589.96c6.2 8.26 8.1 27.57 5 39.77-5.3-9.66-3.6-26.21-5-39.77" style="fill: inherit;"></path>
  <path d="m1602.4 631.38c9.1 24.74 16.3 66.6 8.3 97.77 2.1-31.7-5.8-65.43-8.3-97.77" style="fill: inherit;"></path>
  <path d="m2086.2 631.38c-7.3 53.82-17.5 133.8-6.6 192.22-11.8-24.88-13-73.51-9.9-114.34 2.2-29.76 10.5-57.45 16.5-77.88" style="fill: inherit;"></path>
  <path d="m1554.3 633.04c20.6 45.66 25 134.6 10 190.56-3-28.59 5.6-62.94 3.3-97.77-2.2-32.58-11.4-64.15-13.3-92.79" style="fill: inherit;"></path>
  <path d="m2038.2 633.04c2 28.09-12.6 62.33-5 96.11-14-26.17-1.3-69.67 5-96.11" style="fill: inherit;"></path>
  <path d="m1256.1 682.75c24.1 20.61 45.1 44.34 61.3 72.91-24-20.78-42.3-47.2-61.3-72.91" style="fill: inherit;"></path>
  <path d="m1522.8 717.55c-8.2 58-19.4 129.13-31.4 190.56 3.6-70.41 14.2-133.79 31.4-190.56" style="fill: inherit;"></path>
  <path d="m2117.7 719.2c19.6 52.77 30.3 123.31 31.5 188.91-10.5-62.98-19.9-127.01-31.5-188.91" style="fill: inherit;"></path>
  <path d="m1014.1 725.83c8.8 0.68 25.5 7.65 31.5 16.57-11.7-4.29-22.7-9.37-31.5-16.57" style="fill: inherit;"></path>
  <path d="m2624.8 724.17c4.9 6.88-19.2 12.68-26.5 18.23-0.9-9.2 19.8-11.02 26.5-18.23" style="fill: inherit;"></path>
  <path d="m2863.4 749.04c-15.8 24.89-40.5 46.83-61.3 71.24-21.2 24.87-38.7 52.45-59.7 76.23 33-56.49 76.6-102.44 121-147.47" style="fill: inherit;"></path>
  <path d="m896.47 754c14.67 0.8 29.86 15.42 44.74 21.54-15.06-0.42-32.16-13.13-44.74-21.54" style="fill: inherit;"></path>
  <path d="m2745.7 752.34c-11.7 11.44-27.3 19.05-44.7 24.86 12.8-10.45 27.8-18.55 44.7-24.86" style="fill: inherit;"></path>
  <path d="m1473.1 775.54c-4.8 44.32-11.1 101.51-8.3 159.08-11.7-49.01-3.5-117.46 8.3-159.08" style="fill: inherit;"></path>
  <path d="m2167.4 777.2c15.3 39.43 18.9 104.4 11.6 155.76-2-53.76-2.1-109.48-11.6-155.76" style="fill: inherit;"></path>
  <path d="m1083.7 788.8c12 0.15 21.6 17.02 36.5 19.88-11.4 5.31-25.7-13.75-36.5-19.88" style="fill: inherit;"></path>
  <path d="m2409.4 810.34c0.1 16.97-10.4 34.27-16.6 51.37-6.3 17.33-9.2 36.49-19.9 49.71 7.5-38.37 20.8-70.92 36.5-101.08" style="fill: inherit;"></path>
  <path d="m1445 825.25c2.2 54.05-6.7 116.84-5 170.68-11.7-51.18-0.3-120.09 5-170.68" style="fill: inherit;"></path>
  <path d="m2193.9 825.25c12.8 46.36 15 117.18 10 170.68-6.2-54.05-3.7-116.72-10-170.68" style="fill: inherit;"></path>
  <path d="m540.2 855.08c81.94 30.18 162.53 76.09 245.25 111.03-44.86-8.5-85.5-32.12-125.95-51.37-40.68-19.37-81.87-37.01-119.3-59.66" style="fill: inherit;"></path>
  <path d="m2855.1 966.11c83.1-35.61 161.6-75.93 243.6-112.68 2.4 4.5-5.7 6.65-8.3 8.28-31.1 19.74-72.4 36.36-107.7 53.03-41.2 19.48-84.1 43.9-127.6 51.37" style="fill: inherit;"></path>
  <path d="m944.52 994.27c26.61 13.13 47.25 32.33 69.58 49.73-13.7-0.9-23.03-14.8-34.78-23.2-11.84-8.5-26.99-14.9-34.8-26.53" style="fill: inherit;"></path>
  <path d="m2308.3 1014.2c1.3 54.8-5.2 125.1-1.7 182.2 9.4-5.5 10.3-20.5 13.3-31.4 3.4-12.5 5.8-24.6 9.9-34.8-3 30.1-11.5 69-28.1 91.1 0.5-58.8-2.4-146.1 6.6-207.1" style="fill: inherit;"></path>
  <path d="m1332.3 1015.8c10.2 59.3 9.5 143.9 6.6 205.5-15.6-24.2-21.9-57.7-28.2-91.1 11.4 18.4 9.9 49.8 23.2 66.2 5.4-47.5-0.4-123.7-1.6-180.6" style="fill: inherit;"></path>
  <path d="m3105.3 1024.1c-51.5 25.2-111 42.6-162.4 67.9 46.8-30 102.9-50.6 162.4-67.9" style="fill: inherit;"></path>
  <path d="m676.08 1037.4c64.56 14.9 123.3 50.1 177.3 81.2-29.25-6.8-56.27-27.4-86.17-41.5-29.89-14.1-62.16-24.5-91.13-39.7" style="fill: inherit;"></path>
  <path d="m2964.5 1035.7c-57.3 29.4-118 55.5-175.7 84.5 51.5-35.2 110.4-63.1 175.7-84.5" style="fill: inherit;"></path>
  <path d="m3153.4 1039c-31.2 13.6-66.7 22.8-97.8 36.5 27.6-17.1 61.9-27.6 97.8-36.5" style="fill: inherit;"></path>
  <path d="m2286.7 1052.3c9.2 52.7 3.9 133.5-4.9 187.2 2.2-61.8 3.9-124.2 4.9-187.2" style="fill: inherit;"></path>
  <path d="m1352.2 1053.9c6.2 56.7 6 128.8 6.6 185.6-8.1-55.4-9.4-124.6-6.6-185.6" style="fill: inherit;"></path>
  <path d="m1312.4 1060.6c5.9 17.9 15.5 40.7 11.6 62.9-3.6-21.2-8.8-40.9-11.6-62.9" style="fill: inherit;"></path>
  <path d="m3231.3 1062.2c-16.3 10.2-40.4 12.7-58 21.6 12.8-13.7 36.4-16.7 58-21.6" style="fill: inherit;"></path>
  <path d="m1022.4 1065.5c20.5 0 50.7 4.6 63 18.3-18.7-8.4-42.7-11.5-63-18.3" style="fill: inherit;"></path>
  <path d="m2619.8 1063.9c-18.2 8.4-47.5 14.2-64.6 18.2 16.6-11 40.1-15.2 64.6-18.2" style="fill: inherit;"></path>
  <path d="m2271.8 1097c4.5 7.1 3.3 20 5 29.8-4.6-7-4.1-19.1-5-29.8" style="fill: inherit;"></path>
  <path d="m1559.3 1098.7c2.1 0.4 1.7 3.3 0 3.3-23.5 9.1-51.6 13.6-81.2 16.6 20.4-13.3 57.4-10.1 81.2-19.9" style="fill: inherit;"></path>
  <path d="m2081.3 1102c24.7 1.8 61.9 5.5 82.8 16.6-30.6-2.5-57.9-8.4-82.8-16.6" style="fill: inherit;"></path>
  <path d="m1387 1135.1c-0.3 24.6-7.4 56.8-15 79.6 1.5-23.4 8.2-55.9 15-79.6" style="fill: inherit;"></path>
  <path d="m2253.6 1135.1c10.3 22.3 10.8 54.4 18.2 79.6-12.3-20.3-13.4-51.8-18.2-79.6" style="fill: inherit;"></path>
  <path d="m465.63 1153.3c64.24 12.6 127.54 40.4 178.96 71.3-28.11-8.8-55.52-25.8-86.16-38.1-30.23-12.1-62.92-20.6-92.8-33.2" style="fill: inherit;"></path>
  <path d="m3176.6 1151.7c-59.7 24.8-123.9 45.1-179 74.6 49.7-34.9 112.2-56.8 179-74.6" style="fill: inherit;"></path>
  <path d="m1191.4 1208c11.3 8 23 15.7 29.8 28.2-10.6-8.6-22.3-16.3-29.8-28.2" style="fill: inherit;"></path>
  <path d="m1547.7 1257.7c1.5 0.8 3 1.5 3.3 3.4 2.6 57.5 6.7 113.7 11.6 169-13.5-46.7-20.7-122.5-14.9-172.4" style="fill: inherit;"></path>
  <path d="m1516.2 1272.7c7.1 4.2 10.3 20.2 6.6 29.8-5-7.1-6.5-17.8-6.6-29.8" style="fill: inherit;"></path>
  <path d="m2122.7 1272.7c5.3 4.7 2.1 26.7-5 29.8-2.5-9.8 2.5-20.3 5-29.8" style="fill: inherit;"></path>
  <path d="m1320.7 1289.2c18.2 14.4 28.7 36.5 36.4 61.3-12.9-19.6-22.8-42.3-36.4-61.3" style="fill: inherit;"></path>
  <path d="m2318.2 1289.2c3-0.4 3.4 1.6 1.7 1.7-11.9 19-23.6 38.3-33.2 59.6 1.3-23 18.6-44.4 31.5-61.3" style="fill: inherit;"></path>
  <path d="m2270.2 1297.5c-5.6 23.2-21.9 50-29.9 76.2 2.5-26.2 18.9-52.9 29.9-76.2" style="fill: inherit;"></path>
  <path d="m1370.4 1299.2c16 19.9 24.2 47.6 33.1 74.5-13.1-22.8-21.1-50.6-33.1-74.5" style="fill: inherit;"></path>
  <path d="m1408.5 1309.1c2.7-0.5 2.9 1.6 5 1.7 10.9 35.9 23.9 70 34.8 106-12.9-10.7-17.5-30.9-23.2-48-6.5-19.5-12.7-39.4-16.6-59.7" style="fill: inherit;"></path>
  <path d="m2230.4 1309.1c1.6 0.1 1.3 2 1.7 3.3-1.2 19.6-10.7 37.2-16.6 54.7s-7.2 38.5-21.6 49.7c9.4-32.1 23.2-74 36.5-107.7" style="fill: inherit;"></path>
  <path d="m1597.4 1317.4c3.8 10.9-3.2 28.7-6.6 43.1-2.8 11.7-3.1 25.9-11.6 31.5 4.6-26.3 10.5-51.3 18.2-74.6" style="fill: inherit;"></path>
  <path d="m2041.5 1320.7c0.4-2.1 3.3-1.6 3.3 0 7.8 21.1 15.7 50.5 16.6 72.9-10.7-20.2-13-48.9-19.9-72.9" style="fill: inherit;"></path>
  <path d="m1511.2 1325.7c12.1 16.4 16 48.7 16.6 71.2-10.2-19-10.9-47.6-16.6-71.2" style="fill: inherit;"></path>
  <path d="m2127.7 1325.7c1.1 22.7-5.6 51.9-13.3 71.2-1.8-23.5 7.1-50.1 13.3-71.2" style="fill: inherit;"></path>
  <path d="m2031.6 1435c8.9 14.8 13.7 33.8 18.2 53.1-11.6-12.2-13.8-33.7-18.2-53.1" style="fill: inherit;"></path>
  <path d="m1012.5 1448.3c5.7-1.3 17.6 5.5 19.8 13.3-8.3-2.7-13.4-8.7-19.8-13.3" style="fill: inherit;"></path>
  <path d="m2629.8 1446.6c-5.1 6.6-11.7 11.6-19.9 15 2.8-8.8 11.4-11.8 19.9-15" style="fill: inherit;"></path>
  <path d="m2545.2 1453.3c-5.2 19.6-17.9 46.1-29.8 64.6 5.2-26.3 17.1-45.9 29.8-64.6" style="fill: inherit;"></path>
  <path d="m1055.5 1503c24.8 7.8 48.6 30.9 68 49.7-21-11.6-44.4-35.2-68-49.7" style="fill: inherit;"></path>
  <path d="m1078.7 1541.1c32.8 12.5 63.7 41.3 89.5 66.3-16.9-4.1-30-20.3-44.7-31.5-15.4-11.7-31.7-22-44.8-34.8" style="fill: inherit;"></path>
  <path d="m2560.1 1539.4c4.3 0 2.1 1.3 1.7 3.4-12.4 12.9-30.1 21.7-44.7 33.1s-26.3 27.6-43.1 31.5c24.7-26.6 54.6-48.1 86.1-68" style="fill: inherit;"></path>
  <path d="m979.32 1602.4c58.08 8.8 112.88 35.2 162.38 58-27.5-4.5-53.8-18.2-81.2-28.2-27.1-9.8-54-20.8-81.18-29.8" style="fill: inherit;"></path>
  <path d="m2661.2 1600.8c-51.9 22-106.6 41.4-160.7 61.3 46.8-27.2 101.6-46.5 160.7-61.3" style="fill: inherit;"></path>
  <path d="m908.07 1622.3c55.35 3.7 110.13 22.5 149.13 48.1-47.9-17.9-97.32-34.2-149.13-48.1" style="fill: inherit;"></path>
  <path d="m2729.2 1620.6c2 6-8.4 5.1-13.3 6.7-41.1 13.4-93.1 26.9-130.9 43.1 36.3-30.2 89.5-34.7 142.5-49.8h1.7" style="fill: inherit;"></path>
  <path d="m785.45 1638.9c57.16-0.3 111.64 16.5 159.07 31.5-11.32 4.6-24.18-3.6-36.45-6.7-38.27-9.6-83.39-15.7-122.62-24.8" style="fill: inherit;"></path>
  <path d="m2856.8 1637.2c-50.7 12.8-112.1 23.9-159.1 34.8 45.3-19.3 99.1-30.1 159.1-34.8" style="fill: inherit;"></path>
  <path d="m830.18 1688.6c-33.18-2.6-71.23-7-104.39-14.9-13.31-3.2 17.5-2.6 24.85-1.7 25.2 3.2 60.65 9.1 79.54 16.6" style="fill: inherit;"></path>
  <path d="m2919.7 1670.4c-31.1 9.8-72.5 18-109.3 16.5 33.6-8.3 70.4-13.5 109.3-16.5" style="fill: inherit;"></path>
  <path d="m687.68 1723.4c-18.3 6.4-58.84-1.7-71.25-6.6 22.68-3.3 50.96 1.9 71.25 6.6" style="fill: inherit;"></path>
  <path d="m3027.4 1716.8c-20.4 7.2-46.9 8.2-72.9 9.9 15.3-11.6 50.1-11.3 72.9-9.9" style="fill: inherit;"></path>
  <path d="m1663.7 2084.6c7.6 41.8 7.2 115.7 1.6 162.4-1.7-50.2-1.9-105.9-1.6-162.4" style="fill: inherit;"></path>
  <path d="m1975.2 2087.9c9 48.3-1.4 105.7 1.7 159.1-12.1-43.6-1-107.3-1.7-159.1" style="fill: inherit;"></path>
  <path d="m1869.2 2106.2c16 24.3 29.8 50.8 43 77.9-18.7-21.7-33.6-47-43-77.9" style="fill: inherit;"></path>
  <path d="m1368.7 2114.4c90.1 40.9 186.2 75.7 251.9 140.9-4.6 1.2-10-4-13.3-6.6-66.2-53.3-160.1-90.5-238.6-134.3" style="fill: inherit;"></path>
  <path d="m2270.2 2114.4c2.1 0.5 1.6 3.4 0 3.4-82.9 46.4-181.4 77.1-246.9 140.8 0.3-11.7 13.8-18.6 21.5-24.8 61-49.5 149.9-83 225.4-119.4" style="fill: inherit;"></path>
  <path d="m1436.7 283.4c-7.8 29.8-20.7 68.85-36.5 96.1 9-35.16 21.4-66.95 36.5-96.1" style="fill: inherit;"></path>
  <path d="m2242 379.5c-18-25.68-24.5-62.8-38.1-92.79-0.5-2.96 1.6-3.4 1.6-1.65 15.4 28.24 26.7 60.66 36.5 94.44" style="fill: inherit;"></path>
  <path d="m1338.9 449.11c-22.1-40.9-36.1-89.82-56.3-132.57 25.1 37.79 40.5 85.44 56.3 132.57" style="fill: inherit;"></path>
  <path d="m2356.3 319.86c-14.2 39.31-34.5 86.96-51.3 129.25 9.1-44.44 30.4-91.06 51.3-129.25" style="fill: inherit;"></path>
  <path d="m2175.7 349.68c20 23.09 35.7 64.84 49.7 99.43-21.2-28.48-32.4-67.05-49.7-99.43" style="fill: inherit;"></path>
  <path d="m1498 422.59c-21 53.61-51.5 112.06-81.2 162.39 21.8-52.72 52.4-111.04 81.2-162.39" style="fill: inherit;"></path>
  <path d="m2227.1 584.98c-34.4-46.86-55.9-106.52-84.5-159.07 3-2.96 8.2 7.41 11.6 13.25 25.4 44.48 47.8 100.52 72.9 145.82" style="fill: inherit;"></path>
  <path d="m1244.5 437.51c39.4 35.17 79.4 92.84 102.7 144.16-32.5-49.84-66.4-98.19-102.7-144.16" style="fill: inherit;"></path>
  <path d="m2396.1 435.85c-31 45.26-69.8 97.04-102.7 145.82 27.4-55.47 62.6-103.1 102.7-145.82" style="fill: inherit;"></path>
  <path d="m2112.8 482.24c34.9 41.28 61.3 105.43 94.4 154.11-35.4-40.83-64.2-102.58-94.4-154.11" style="fill: inherit;"></path>
  <path d="m1526.2 482.24c-22.9 51.13-58.5 112.8-91.2 154.11 31.2-50.51 58.6-104.91 91.2-154.11" style="fill: inherit;"></path>
  <path d="m2432.6 520.36c-43.8 46.31-93.9 100.6-130.9 159.07 31.2-65.44 78-115.26 130.9-159.07" style="fill: inherit;"></path>
  <path d="m1673.6 651.27c-38.2 154.56-113.2 272.33-215.4 362.93-2 2.3-0.6 0.1 0-1.7 95.7-96.49 166.1-218.3 215.4-361.23" style="fill: inherit;"></path>
  <path d="m1968.6 651.27c48.9 144.36 120.1 266.51 217.1 362.93-0.4 1.8-1.7 0.9-1.7 0-102.6-89.07-179.6-212.6-215.4-362.93" style="fill: inherit;"></path>
  <path d="m1716.7 657.89c-6.1 35.88-29.2 69.06-46.4 99.43 12-30 35.2-63.15 46.4-99.43" style="fill: inherit;"></path>
  <path d="m1971.9 755.66c-20.3-28.28-37-60.25-48.1-97.77 13.9 34.71 31.4 65.82 48.1 97.77" style="fill: inherit;"></path>
  <path d="m604.82 679.43c26.65 13.68 57.64 37.37 77.89 62.97-25.98-20.96-49.96-43.94-77.89-62.97" style="fill: inherit;"></path>
  <path d="m3035.7 677.78c-19.7 20.06-52.6 41.23-74.5 64.62 14-25.78 49.2-44.68 74.5-64.62" style="fill: inherit;"></path>
  <path d="m740.7 684.41c3.25-0.76 21.94 10.98 31.49 14.91-9.25 0.39-22.15-9.87-31.49-14.91" style="fill: inherit;"></path>
  <path d="m2384.5 682.75c-3.7 13.95-17.8 23.8-28.2 36.45-10 12.18-17 29.63-31.4 36.46 15.6-28.58 36.8-51.48 59.6-72.91" style="fill: inherit;"></path>
  <path d="m2899.8 682.75c-3.3 8.86-25.2 13.36-34.7 21.54 4-8.15 26-12.65 34.7-21.54" style="fill: inherit;"></path>
  <path d="m1045.6 707.61c97.5 62.7 182.6 152.18 230.3 270.1-54.3-112.51-134.3-199.31-230.3-270.1" style="fill: inherit;"></path>
  <path d="m2366.3 977.71c43.7-114.83 130.2-201.17 225.3-270.1 2.6 2.8-6.4 9.1-11.6 13.25-84.9 68.04-166.2 149.94-213.7 256.85" style="fill: inherit;"></path>
  <path d="m3049 719.2c-95.9 83.13-217.2 155.15-324.8 231.99 9.2-12.71 23.6-22.16 36.5-31.48 92.8-67.14 196.3-131.62 288.3-200.51" style="fill: inherit;"></path>
  <path d="m593.23 722.52c106.69 70.6 218.95 150.02 326.43 225.36-29.68-10.34-54.86-33.97-82.85-53.02-81.02-55.18-167.04-110.59-243.58-172.34" style="fill: inherit;"></path>
  <path d="m457.35 747.38c84.13 41.24 173.09 92.03 256.84 139.19-87.01-38.37-176.48-88.66-256.84-139.19" style="fill: inherit;"></path>
  <path d="m772.19 747.38c47.19 37.86 92.96 91.52 125.93 149.13-38.61-53.08-79.82-103.56-125.93-149.13" style="fill: inherit;"></path>
  <path d="m3181.6 745.71c-70.7 54.2-167 97.11-251.9 142.52 73.9-50.57 170.8-93.45 251.9-142.52" style="fill: inherit;"></path>
  <path d="m1158.3 760.63c15.6 11.44 35.3 33.21 43.1 58-14.3-19.4-27.1-40.29-43.1-58" style="fill: inherit;"></path>
  <path d="m2482.3 758.97c-8.6 17.97-30.4 36.99-39.8 59.66 1.6-24.94 25.9-41.46 39.8-59.66" style="fill: inherit;"></path>
  <path d="m2555.2 787.14c-3.2 9.54-19.6 20.22-33.2 24.86 8.8-10.56 23.9-14.82 33.2-24.86" style="fill: inherit;"></path>
  <path d="m2038.2 919.71c-49.9-28-99-71.16-126-127.59 28.3 49.65 79.6 90.58 126 127.59" style="fill: inherit;"></path>
  <path d="m1605.7 921.37c36.2-37.26 89.7-71.58 119.3-120.97-0.2-4.1 2-2.82 1.7 0-28.9 51.79-73.4 87.95-121 120.97" style="fill: inherit;"></path>
  <path d="m1229.5 812c18.2 20.52 34.1 66.43 38.1 101.08-13.4-32.91-23.9-68.84-38.1-101.08" style="fill: inherit;"></path>
  <path d="m936.23 823.6c26.39 28.86 60.71 72.95 71.27 117.65-19.83-43.16-46.12-79.82-71.27-117.65" style="fill: inherit;"></path>
  <path d="m2704.3 821.94c-19.7 37.14-51 77.18-71.2 119.31 14.3-49.16 44.4-82.57 71.2-119.31" style="fill: inherit;"></path>
  <path d="m2568.4 846.8c-3.7 4.69-25.4 19.77-26.5 38.11-14.1 14.56-39.7 17.69-49.7 36.46 0.3-19.64 28.1-26.04 43.1-36.46 4.8-18.94 18.9-28.64 33.1-38.11" style="fill: inherit;"></path>
  <path d="m1075.4 848.45c10.7 3.1 21.5 19.27 29.9 34.8 7.6 14.18 44.1 13.75 44.7 36.46-11.9-13.52-29.2-21.59-46.4-29.83-5.4-17.78-16.3-30.11-28.2-41.43" style="fill: inherit;"></path>
  <path d="m1690.2 949.54c-28.8 46.91-91.6 74.16-155.8 91.16 56.3-26.1 119.9-44.81 155.8-91.16" style="fill: inherit;"></path>
  <path d="m1950.4 949.54c37.6 44.14 97.2 66.26 155.7 89.46-61.7-13.4-122.9-41.7-155.7-89.46" style="fill: inherit;"></path>
  <path d="m2696 994.27c-15.3 17.83-44.9 35.73-67.9 51.33 19.6-20.1 43.4-36.1 67.9-51.33" style="fill: inherit;"></path>
  <path d="m699.28 1090.4c-26.18-7.2-51.96-21.5-81.2-33.2-28.42-11.3-58.59-19.4-84.51-33.1 51.69 11.2 117.44 39.7 165.71 66.3" style="fill: inherit;"></path>
  <path d="m1083.7 1055.6c-17.2-6-39.4-21.4-58-31.5 13.9 2.7 41.7 20.1 58 31.5" style="fill: inherit;"></path>
  <path d="m2560.1 1057.2c9.6-13.7 36.7-24.1 54.7-34.8 2 4.4-16.1 11.7-24.8 16.6-10.7 6.1-22.2 12.5-29.9 18.2" style="fill: inherit;"></path>
  <path d="m1140.1 1027.4c35.3 23.2 68.8 62.7 82.8 112.7-19.1-46.1-49-81.3-82.8-112.7" style="fill: inherit;"></path>
  <path d="m1088.7 1030.7c35.3 12.2 69.7 39.7 86.2 76.3-22.1-32.2-52.6-55.8-86.2-76.3" style="fill: inherit;"></path>
  <path d="m2551.9 1029.1c-24.8 22.1-66.2 42.1-82.9 77.9 2.2-18.9 19.4-34.1 33.1-46.4 14.5-13 32.6-23.3 49.8-31.5" style="fill: inherit;"></path>
  <path d="m2495.5 1030.7c-24.4 30.3-61.4 62.3-74.5 109.4-3.8-4.5-1.3-9.4 0-13.3 10.8-32.9 48.7-76.3 74.5-96.1" style="fill: inherit;"></path>
  <path d="m487.17 1040.7c34.65 3.4 71.4 19.2 99.43 34.8-27.8-10.4-65.39-25.2-99.43-34.8" style="fill: inherit;"></path>
  <path d="m407.63 1062.2c18.85 2.2 47.99 8.4 61.32 21.6-19.1-8.6-42.47-12.8-61.32-21.6" style="fill: inherit;"></path>
  <path d="m2319.9 1121.9c-4.3-19.9-0.4-45.9 8.3-58 4-5.6 0.1-1.6 0 0-0.9 13-7.4 34.6-8.3 58" style="fill: inherit;"></path>
  <path d="m1368.7 1098.7c1.7 5.5 0.2 22.2-3.3 28.1-0.3-4.2 1.5-20.5 3.3-28.1" style="fill: inherit;"></path>
  <path d="m841.79 1279.3c-57.41-36.5-131.75-70.4-195.54-106.1h-1.66c9.77-0.9 36.87 13 51.37 19.9 50.92 24.4 107.75 56.3 145.83 86.2" style="fill: inherit;"></path>
  <path d="m2802.1 1280.9c48.9-45.5 124.5-78.7 193.9-109.3 2.9-0.5 3.4 1.5 1.6 1.6-65.2 35.9-137.4 64.8-195.5 107.7" style="fill: inherit;"></path>
  <path d="m798.7 1204.7c72.58 26.3 137.67 74.5 193.88 122.6-58.13-40.7-123.9-88.2-193.88-122.6" style="fill: inherit;"></path>
  <path d="m2651.3 1329c8.9-14.8 25.1-25.4 39.8-36.5 43.6-32.9 95.6-65 149.1-89.4 2 5.3-5.5 4.9-8.3 6.6-59.9 36.1-129.7 73.8-180.6 119.3" style="fill: inherit;"></path>
  <path d="m2449.1 1208c-1.3 10.3-20.1 17.5-26.5 28.2 0.2-11.4 18.2-19.4 26.5-28.2" style="fill: inherit;"></path>
  <path d="m903.1 1224.6c58.41 27.2 115.6 70 162.4 114.3-54-38.2-106.91-77.5-162.4-114.3" style="fill: inherit;"></path>
  <path d="m2737.5 1222.9c-48.2 37.5-108.8 76.8-160.8 116 46.1-46.1 101.9-82.5 160.8-116" style="fill: inherit;"></path>
  <path d="m1252.7 1249.5c11 3.9 26.4 17.8 33.2 31.4-11.1-10.4-22.7-20.4-33.2-31.4" style="fill: inherit;"></path>
  <path d="m2387.8 1247.8c-3.3 11.7-22.5 21.6-31.5 33.1 2.9-12 21.2-23 31.5-33.1" style="fill: inherit;"></path>
  <path d="m2094.5 1257.7c4.5 61-2.4 124.6-14.9 174 0.8-37.7 7.7-85.5 9.9-129.2 0.8-14.3-4.4-33.9 5-44.8" style="fill: inherit;"></path>
  <path d="m1875.8 2300c12.3-16.4 17.3-40.1 24.8-61.3-3.7-4.6-9.2-7.3-16.5-8.3-3.3 20.6-13.8 51.3-8.3 69.6zm-134.2-59.6c2.3 10.5 7.6 20.5 11.6 31.5 3.7 10.3 4.6 24.6 14.9 29.8 1.3-21.8-6.4-48.9-10-71.3-7.2 1.7-14.7 3-16.5 10zm56.3-89.5c-0.4 5.2 5.1 11.6 5 18.2-0.1 6.3-5.2 10.9-5 16.6 0.4 12.5 8.5 28.8 11.6 43.1 1.7 7.6 3.5 15.8 5 23.2 1.3 6.5-2 19 8.3 19.9 8.1-27.8 10.9-60.9 21.5-86.2-6.7-11.6-4.3-24 0-36.5-8.3-13.2-13.6-29.4-23.2-41.4-5.7 13.7-22 26.8-23.2 43.1zm41.4-96.1c1.4 18.8 4.7 42.8-4.9 54.7 3.3 16.7 20.5 24.4 21.5 41.4 0.4 7.4-6.7 13.6-5 21.5 3.9 17.7 31.3 15.6 38.1 33.2-2.5 2.4-1.4 8.5-1.6 13.2 16.5 7.3 28.7 18.8 54.7 16.6-0.4-13.3-10.7-23.4-11.6-36.4-0.5-7.5 3.3-14 3.3-21.6-0.1-21-12-42.9-8.3-67.9-14-12.5-16.9-36.2-41.4-38.1-9.9-12.3-17.3-27-33.2-33.2 1.3 10.6-9.7 9-11.6 16.6zm-53-16.6c-10.6 10.4-20 22-29.8 33.2-23.1 3.4-27.9 25.1-39.8 39.7-7.1 47.2-1.9 87-16.6 124.3 25.4 1.1 40-8.7 54.7-18.2 0.1-8.4-2.1-9.5 0-16.6 12.4-9.1 27.7-15.4 36.5-28.2-13.2-28.2 9.3-41.3 14.9-64.6-10.8-13.8-4.4-34.9-3.3-54.7-8.1-2.4-8.8-12.2-16.6-14.9zm266.8-348c-32.9 52.2-67.4 112.3-92.8 177.4-18.6 47.6-38.7 101.3-49.7 154-3.2 15.3-15.1 40 1.6 53.1 46.3-131 95.9-269.2 167.4-372.9 3.2-4.6 13.8-12 8.3-19.8h-3.3c-7.9 5.3-20.9 5.5-31.5 8.2zm-500.4-3.3c69.3 105.4 123.7 229.6 167.3 359.6 3.1 9.1 0.7 22.4 11.6 28.2 11.6-15.6 3.5-38 0-54.7-3.7-18-9.5-36.7-14.9-53-33.8-101.9-74.1-200.9-130.9-276.8-12.6-1.8-21.8-6.9-34.8-8.2 0.3 1.9-0.3 4.7 1.7 4.9zm773.8-230.3c-14.5 7.6-26.7 17.4-43.1 23.2-10.9 29.4-46.2 34.4-74.5 46.4-0.2 29.7-13 46.7-33.2 56.3 2.2 24.8-15 30.3-28.2 39.8v16.6c-36.3 31.4-63.4 68.3-91.1 114.3-52.2 86.7-93.8 198.2-127.6 290-7.2 19.5-19.6 46.1 0 51.4 9.7-21.3 6.6-55.3 18.2-74.6 1.1-5.6 10.6-2.7 10-10 12.9-32.8 31-60.6 51.4-86.1 5.8-5.4 5.8 5.2 13.2 3.3 58.7-134.8 138.4-254.5 225.4-361.2 22.2-27.3 42-58.4 64.6-82.9 6.2-6.8 20-14.5 16.6-26.5zm-1015.8 6.6c119.8 137.1 229.8 283.9 308.2 462.3 5.9 5.4 5.9-5.2 13.3-3.3 20.8 27.3 41 55.1 53 91.2 4.5 2.7 9.4 5 11.6 9.9 10.5 19.4 4.9 54.7 18.3 71.3 6.2-1 5.1-9.3 9.9-11.6-49.7-153.1-110.1-295.4-195.5-412.6-13.8-8.9-25.9-19.4-34.8-33.2-3-5.6 0.2-8 0-14.9-13.9-8.9-33-17.3-28.2-39.8-20.8-9-33.3-26.3-33.1-56.3-28.1-12.2-64.4-16.3-74.6-46.4-18.4-5.4-29.4-18.1-48.1-23.2v6.6zm-111 137.6c-10.3-18.4-28.5-34.2-33.1-51.4-0.7-2.6 1.9-7.4 1.6-10-2.4-21.7-16.6-38.2-24.8-59.6 1.6 0 1.9 1.3 3.3 1.7 15.5 18.7 25.5 43 28.2 74.5 15.5 12.6 21.3 35.1 38.1 46.4-2.1-33.5-4.2-62.8-16.6-86.2-3.2-6-8.6-10.8-11.6-16.5-9.6-18.3-11.5-39.5-26.5-54.7-22.3 4.8-28.3-21.9-46.4-26.5-7.5-1.9-16.2 2.3-24.9 0-11.9-3.2-16.8-17.8-28.1-21.6-10.7-3.5-21.1 2.8-34.8 0-11-2.1-18.5-14.7-29.87-16.5-22.1-3.5-33.09 6-58 14.9 10.58 17.6 26.55 36.8 41.43 58 13.71 19.5 31.44 39.7 41.44 58 0.6 1.2 1.2 2.2 1.6 3.3 9.5 23.5 12.2 48 36.5 54.7 2.1 4.5 4 9.2 3.3 16.5 33.1 26.6 66.7 52.7 127.6 51.4-1.3-11.9-16-19.3-14.9-28.2 15.8 16.2 35.3 37.6 34.8 64.7-3.5-10.9-8.4-20.4-13.3-29.9-41.1 7.9-63.9-5.9-91.1-19.8-25.3-13-49.6-20.8-53-48.1-28-32.7-124.78-46-140.88 6.6-37.09-2.7-93-1.2-117.65 14.9-5.59 3.7-7.95 10.8-13.25 13.3-8.35 3.9-17.42 1.7-26.52 3.3-31.8 5.8-64.71 15.9-86.16 36.5-5.27 3.8 2.14 8.7 1.65 13.2-33.97 20.8-72.85 25.6-99.42 54.7-5.19 5.7-7.22 14.8-13.26 19.9-10.64 9-28.02 14.1-41.43 23.2-19.1 13-36.29 26.6-41.42 51.4-31.38 22.2-71 44.9-64.63 99.4 41.81-45.9 95.8-74.2 157.42-104.4 44.35-21.8 93.33-41.7 142.51-58 105.31-35 221.41-46 339.74-61.3 45.4-5.9 94.3-10.2 140.8 3.3 3.6-3 0.8-12.4 8.3-11.6 5 11.6 17.9 14.4 13.3 31.5 138.1 111.2 258.2 246.6 351.2 401 16 26.5 30.1 53.1 48.1 77.9 17.4 23.9 36.6 47.1 48.1 74.5-46.9-55.3-84-120.3-162.4-144.1-18.6-14.1-42.2-37-72.9-28.2-18.2-16-47.8-28.5-79.6-19.9-4.8 1.3-9.4 6.3-14.9 8.3-24.4 8.7-50.1 13.3-63 33.1-5.3 8.3-7.6 19.4-8.2 29.9 63.4-11 98 15.3 142.5 28.1 9.6 26.3 42.1 29.7 72.9 34.8 10.7 24.6 36.5 34.2 67.9 38.2 2.9 4.7 0.6 14.8 5 18.2 18.6 19.2 61.5 22 94.4 21.5 48.2 19.1 60.9 75.9 89.5 116 8.5 11.9 26.9 30.6 28.2 41.5 0.6 5.3-2.7 12.2-1.7 16.5 2.4 9.9 13.3 15.1 19.9 21.6-1.6 6.5-12 11.1-9.9 23.2 1.2 7.1 13.9 13.6 16.5 21.5 11.3 33.8-8.6 71-6.6 109.4 13.4 29.8 72.8 27.9 94.5 6.6 2.1-40.1-17.1-71.1-10-117.7 13.8-7.2 23.7-29.3 8.3-43 6.3-7.6 15.8-11.8 19.9-21.6 0.7-7.8-3-11.4-1.7-19.9 15.2-26.2 40.1-48.4 54.7-79.5 13.1-28 29.9-68.5 64.6-74.6 4.4-0.7 10.7 1.9 15 1.7 27.9-1.3 59.4-7.6 77.8-23.2 3.3-5 0.3-16.3 6.7-18.2 30.6-4.2 55.1-14.5 66.2-38.2 32.3-4.1 62.1-10.8 74.6-34.8 42.7-14.2 78.2-38.6 140.9-28.1-3.5-45.3-34.9-49.7-72.9-63-6-2.1-10.7-6.8-16.6-8.3-31.1-7.6-59.6 5.2-77.9 19.9-32.5-12.2-52.1 20.1-74.6 29.8-5.5 2.4-12.9 1.3-18.2 3.4-29.3 11.5-47 41.1-69.6 56.3-3.6 2.4-8.5 2.2-11.6 5-25.4 22.9-35 59.6-61.3 76.2 18.1-32.2 40.3-60.2 63-87.8 97.8-184.4 227.7-336.8 384.4-462.4-3.3-19.2 10.4-21.6 14.9-33.1 7.2-0.5 1.8 11.5 8.3 11.6 44.7-14.2 99.8-8.2 142.5-3.3 137 15.7 263.3 29.3 382.8 76.2 42.3 16.6 82.8 35 122.6 54.7 40 19.8 83.6 43.8 109.4 69.6 7.8 7.8 11.8 19.7 23.2 23.2 0.5-18.6-0.2-34.6-6.7-48.1-11.7-24.6-47.7-36.6-59.6-54.6-3.6-5.4-3.3-12.6-6.6-18.3-17.1-29.1-50.4-38.1-77.9-54.7-19.4-40.3-68.4-50.9-107.7-71.2-4.1-4.6 2.6-8.4 1.6-14.9-27-24.9-71.4-32.5-116-39.8-23.9-28.4-80-32.1-130.9-28.2-14.5-53.1-114.6-39.8-139.2-4.9-5.5 24.6-28 34.2-51.3 46.4-28.2 14.6-54.6 27.2-92.8 19.8-7 8-8.8 21.1-14.9 29.9 1.1-24.4 20.8-53.1 36.4-63-3.6 10.2-13.2 14.4-14.9 26.5 60.2 1.7 92.2-24.9 125.9-49.7 2.2-5 1.2-13.2 3.4-18.2 29-7 28.3-35.5 38.1-58 3.6-8.5 14.6-18.6 21.5-28.2 7.2-10.1 13.5-20.8 19.9-29.8 14.1-20.1 31.9-37.3 41.4-58-23.6-9.2-35.4-19.2-58-14.9-10.9 2-18.7 14.6-29.8 16.5-9.4 1.7-18.5-3-26.5-1.6-23.5 4-27.7 32.3-59.7 23.2-17.8 6.5-21.5 27.1-46.4 26.5-9.4 9.2-14.3 22.2-19.9 36.5-13.5 34.8-42.8 72.3-33.1 120.9 8.1-15.4 26.9-27.6 34.8-46.4 11.2-26.5 7.6-61.5 33.1-76.2-8.8 20.2-21.7 37.2-24.8 58-0.8 4.9 1.5 10.1 0 14.9-6.4 20-27 37.9-38.1 59.7-11.9 23.1-17.8 45.7-23.2 74.5-11.6-19.3 6.1-38.5 8.3-58 2.3-21.5-6.8-44.3 1.6-66.3-7.8 3.8-11.9 11.3-19.9 15-4.7 18.2 1.2 43.1-4.9 64.6-2.5 8.6-9.9 11.1-10 19.9-0.2 12 10.7 20.6 13.3 31.5-33.8 39.2-73.7 72.1-109.4 111-53.1 57.9-101 119.7-149.1 180.6-16.2 20.4-30.5 43.3-46.4 64.6-30.4 40.8-65.7 87.4-86.2 134.3-8.1 18.4-12.4 34.3-26.5 41.4 2.3-19.5 19.5-37.2 23.2-61.3 1.1-6.9-1.2-15.2 0-23.2 1-6.6 5.7-13.1 6.6-19.9 2.2-15.7 3.4-37.1 5-54.7 2.4-27.5-8.4-33.2-11.6-49.7-5.4-27.5 8.3-50.8 0-71.3-28.6 17.3-29.1 62.6-54.7 82.9-3 10.5-6.4 21.2-8.3 33.1-2.2 14.2-6.9 31-8.3 39.8-3.6 24.2 7.1 53 6.7 79.5-0.2 8.3-4.3 14.2-3.3 21.6 2.7 21.9 21.1 38.7 24.8 56.3-5 4.9-7.8-10.2-14.9-3.3-5 26.9-27.7 51.3-39.8 76.2-9.3 19.2-13.9 34.8-31.5 39.8 4.6-8.7 8.1-18.4 16.6-23.2 10.2-40.7 42.7-59 49.7-102.7-13.7 1-24.1-1.3-36.4-1.7-17.2 59.6-47.2 106.4-54.7 175.7-7.9 4.8-2.8 22.6-16.6 21.5-3.5-12.7 9.5-21.4 11.6-33.1 0.8-4.4-1.7-10.7-1.6-15 0.7-58.6 33.9-132 29.8-187.2-9.3-5.1-14.9-13.8-28.2-14.9-5.2 40.2-16.2 83.2-19.9 130.9-3.9 51.9 8.4 119.4-8.3 155.7-8.6-98.1-2.3-209.4-26.5-286.6-12.1 1.6-17.5 10.1-26.5 14.9 3 10-0.6 13.6-3.3 21.5 12.8 55.4 31.8 121.4 29.8 180.7 3.4 9.3 18.4 22.8 10 33.1-12.5-8.7-10.8-21.2-13.3-36.5-9.4-57.7-41.9-106.4-54.7-160.7-11 2.7-29.3-1.7-36.4 5 6.3 36.7 39.4 61.1 49.7 99.4 6.1 6.5 13.9 11.5 14.9 23.2-25.3-13.8-31.5-42.8-46.4-68-9.6-16.1-20.9-31.4-24.8-49.7-7-1.9-9.5 9.2-13.3 5 3.5-19.2 23.6-37.3 24.9-61.3 0.3-6.5-3.3-13.4-3.4-19.9-0.3-25.1 11.3-49.9 6.7-76.2-1-5.5-5.5-10-6.7-14.9-4.7-19.7-1.7-39.1-9.9-58-27.6-19.4-24.8-69.1-58-82.9-3.4 21.2 7 47 3.3 69.6-1.6 10.2-10.2 17.6-11.6 24.9-3.3 17.5 2.8 30.7 5 51.3 1.1 10.3-1.7 21.3 0 33.2 1.1 7.6 5.8 14.2 6.6 21.5 0.8 6.9-1.1 13 0 19.9 3.7 23 20.4 38.3 21.6 59.7-8.6-6.9-13.7-17.3-21.6-24.9-12.1-37.8-31.6-67-53-97.7-18.5-26.6-36.9-52.5-54.7-77.9-61.1-87.2-129.8-166.2-198.8-242-28.7-31.4-62.9-56.1-87.9-89.4 4.4-14.3 13.9-21.6 11.6-36.5-1-6.9-8-10.3-9.9-18.2-1-4.1 1-12.6 0-19.9-1.8-14-4-24.4-1.7-38.1-7.5-6.9-5.9-22.8-23.2-19.9 10.3 21.8-0.3 44.7 1.7 66.3 1.9 19.7 24 41.4 8.3 59.6-4.7-35.9-13.7-60.3-28.2-86.1zm1426.7-230.4c-19.1 6-35.7 5.5-56.3 8.3-19.8 2.7-39.9 10.8-59.7 14.9-12.1 2.6-29.3 0.5-43 5-23 7.5-49.9 31.9-69.6 53-153 164-294.9 341.1-377.8 570 21.1 33-6.1 98 0 132.6 50-86.6 113.2-162.2 173.9-243.6 42.6-57 89.5-120 145.9-167.3 13.5-11.4 51.7-38 53-51.4 1.1-11.2-13.6-19.8-13.3-31.5 0.2-5.7 8-14.1 10-21.5 5.2-19.1-0.6-47.6 4.9-63 3.1-8.6 10.6-7.7 15-13.3 8-10.2 7.2-20.3 18.2-23.2 18.4-34 28.1-76.8 54.7-102.7 30.5-3.2 32.5-34.9 72.9-28.2 13.6-15.6 31.2-27.3 64.6-23.2 4.1-7.5 18.4-4.8 18.2-16.5-6.2-0.4-8.2 0.6-11.6 1.6zm-1007.5 720.8c-2-18.6-7.5-34.7-4.9-49.7 1.4-8.1 6.8-15.6 6.6-23.2-0.4-13.7-19-41.8-26.5-59.6-8.4-20-15.1-36.8-23.2-54.7-6.3-13.9-13.1-26.6-19.9-39.8-65.8-128.1-154.3-247.4-250.2-351.3-17.6-19.1-38.8-40.4-58-61.3-20.4-22.1-44.5-45.1-67.9-53-13.4-4.5-35.1-2.5-46.4-5-6.6-1.4-14.9-7.3-19.9-8.3-6.2-1.2-13.1 0.8-18.3 0-8.3-1.2-14.2-5.9-19.8-6.6-22.6-2.9-47-1-64.7-9.9-1.3 0.3-1.9 1.4-1.6 3.3 10.5 18.2 30.4 9.3 49.7 13.2 13.8 2.9 21.4 19.1 34.8 23.2 11.7 3.6 19.7 0.1 28.2 3.4 17.3 6.6 20.7 26.1 44.7 24.8 17.9 13.1 19 36.6 28.2 56.3 8.1 17.4 25.8 33.1 26.5 56.4 17-4.9 26.8 17.2 33.1 33.1-1.7 16.5-3.6 37.6 1.7 56.4 2.9 10.2 10 12.9 9.9 23.2-0.1 13.3-10.2 18.5-13.2 31.5 74.8 65.2 142.6 137.1 200.5 218.7 14.1 19.9 31.1 38.5 46.4 58 37.9 48.4 78.9 102.4 109.3 154.1 6.1 10.4 8.3 26 21.6 31.5-5-21.1-4-39.8-6.7-64.7zm903.1-767.2c-32.8 17.5-72.7 29.1-111 46.4-33.4 15.2-67.2 31-101.1 48.1-34.2 17.2-70.5 29.3-104.4 44.7-16.9 7.7-34 16.1-51.3 23.2-18.9 7.8-38.9 11.6-54.7 21.6-14.2 8.9-33.2 24.2-46.4 39.7-34.6 40.5-57.2 77.6-51.4 145.9 1.5 6 7.1-1.2 6.7 4.9-48.8 79.1-95.2 186.4-124.3 293.3-8.9 32.8-22.7 60.4 9.9 71.3 8.5-43.4 16.8-82.6 31.5-122.6 24.1-65.6 44.9-123.4 76.2-182.3 12.7-24 32.4-66.7 53.1-76.2 31.7-14.7 65.8-14.5 84.5-46.4 1.5-7.7-4.2-8-3.4-15 13.1-9.9 35.7-19.2 28.2-39.7 17.9-9.8 39.5-30.9 31.5-51.4 20.7-16.9 52.5-22.7 74.6-38.1 2.9-4.8 2.8-12.6 6.6-16.6 29.9-9.4 52.2-34.6 81.2-49.7 19.8-10.3 39.9-20.8 59.6-33.1 31.2-19.5 62.4-27.9 89.5-46.4 6.3-4.3 22.4-11.7 16.6-21.6zm-1406.8 6.7c23.3 23.8 56.4 31.9 86.2 46.4 29.2 14.1 52.3 40.3 84.5 48 23.3 20.9 52.3 36.1 81.2 51.4 2.8 3.8 0.5 12.7 4.9 14.9 22.1 15.5 53.7 21.5 74.6 38.1 4.1 9-5 4.7-3.3 14.9 6.8 17.5 21.3 27.3 34.8 38.1-7.2 24.5 18.6 27 28.2 39.8-0.1 5.4-4.7 6.3-3.3 13.3 14.2 16.4 27.9 28.3 48 36.4 11.6 4.7 26.3 4 38.1 10 20.8 10.6 39.1 54.7 51.4 77.8 45.4 85.4 81.5 185.8 104.4 285v18.3c38.4-10.6 21.9-38.9 13.2-71.3-12.4-46.7-28.7-95-44.7-134.2-25.4-62.4-53.3-112.8-79.5-159.1 2-2.4 7.2-1.6 4.9-8.3 1.9-28.9 1.7-60.1-8.3-82.8-17.6-40.4-70.4-94.4-111-111-63.3-26-135.2-50-202.1-84.5-61.8-31.9-140.3-64.1-203.9-87.9-0.1 2.9 0.4 5.2 1.7 6.7zm1390.3-18.3c-61.3 10.1-105.1 37.4-155.8 58-3.5 3.7-5.2 9.2-9.9 11.6-26.7 2.3-48.2 18.2-71.3 28.2-23.3 10-40.1 16.9-59.6 28.2-13.4 7.6-31.5 13.1-36.5 28.1 108.4-43.7 211.3-98.1 319.8-140.8 6-2.4 17.9-3.6 18.2-13.3h-3.3zm-1072.1 126c-18.8-10.5-35.9-23.5-59.7-26.5-20.2-13.6-42.8-24.6-71.3-29.9-18.8-21.8-52-27.2-79.5-39.7-14.7-6.8-24.9-13.8-41.4-18.3-15.4-4.2-30.9-8-48.1-11.6-1.3 0.4-1.9 1.4-1.6 3.3v3.4c119 42.8 221.5 102.2 338 147.4-5.2-14.6-23.1-20.7-36.4-28.1zm77.8-242c-10.7 11.8-7.5 28.2-13.2 43.1-2.5 6.5-9.1 11.1-11.6 18.2-2.6 7.6-3.9 18.4-6.6 28.2-8.1 28.8-1.9 35.8 3.3 61.3 2.5 12.7 2.4 26.7 4.9 38.1 8.7 39.7 35.8 73.4 44.8 107.7 50 29.1 84.3 73.7 112.7 124.3 15.7-38.4 38.2-83.5 23.2-129.2-2.5-7.6-14.9-15.1-16.6-23.2-1.6-7.6 2.7-15.7 3.3-23.2 2.2-27-1.3-52.5-13.3-71.3-35.7-11.8-6.8-75.9-26.5-106-4.2-6.5-15.3-10.4-19.9-16.6-21.5-29.3-16.8-63.9-28.1-101.1-23.6 11.8-21.7 49-56.4 49.7zm517 64.7c-19.2 18.1-0.6 70.6-11.6 96.1-2.7 6.3-13 9.8-18.2 16.5-17.9 23.4-11.5 57.1-8.3 92.8-3.9 7.9-13.3 11.7-16.5 19.9-12.3 31.3 2.9 77.6 9.9 99.4 4.1 12.8 4.7 29 14.9 31.5 25.4-53 61.6-95.3 111-124.3 8.4-34 35.8-68.6 44.8-111 2.3-10.9 2.4-24.3 4.9-36.4 2.4-11.3 8-22.7 8.3-33.2 0.4-11.8-7.8-36.7-11.6-53-2.3-10.1-10.3-16.2-13.2-24.9-3.6-10.5-2.6-28.5-11.6-36.4-6-5.2-15.5-2.8-21.6-6.6-16.9-10.7-15.4-39.3-38.1-46.4-4.6 48.3-9.3 96.7-43.1 116zm1221.3-129.3c-17.7-3.7-33.3-12.9-49.7-16.6-21.2-4.7-42.2-0.3-64.6-3.3-12.6-1.6-21.6-6.1-34.8-4.9-18.3 1.6-36.7 11.3-54.7 11.6-8.1 0.1-15.2-3.5-23.2-3.4-22.3 0.4-41.7 11.1-63 16.6-25.7-15.3-54.4-1-81.2 10-17.3 7-42.9 23.6-56.3 23.2-9.4-0.3-19.9-12.1-29.9-13.3-24.3-2.9-48.6 11.6-71.2 21.5-17.4 7.7-48.2 27.7-64.6 29.9-8 1-16.8-2.5-24.9-1.7-36.9 3.5-66.4 25.8-94.4 44.7-27 18.2-51 42.2-64.7 64.7 43.9 0.7 67.7-27.4 107.7-24.9-19.9 30.6-46.5 52.5-76.2 71.3-19.9 12.5-40.2 19.3-63 29.8-24.9 11.5-43.9 33.5-69.6 41.4-118.4 128.7-230.8 275.9-316.4 440.8-20.4 39.2-45.6 74-33.2 127.6 96.6-232 234-423.3 402.7-583.3 17.4-5.1 27-17.5 44.7-23.2 13.4-4.3 27.9-1.9 43.1-5 6.9-1.4 12.9-6.9 19.9-8.2 5.6-1.2 12.5 0.8 18.2 0 7.9-1.2 14.5-5.9 21.6-6.7 8.7-1 17.5 1.1 26.5 0 11.4-1.4 22-8.4 33.1-9.9 7.7-1.1 15.7 0.8 23.2 0 43.4-5 78.3-24.4 111-38.1 18.6 5.2 34.1-2.5 51.4-10 10.3-4.4 18.7-14.5 28.2-16.5 4.7-1.1 11.8 2 16.5 1.6 34.5-2.7 69.2-23.6 107.7-31.5 39.1-8 79.9-15.5 121-19.9 126.9-13.5 253.9-39.7 399.4-31.4 46.1 2.6 92.6 7.2 140.8 4.9-17.3-19.9-45.9-12-71.2-16.5-42-7.5-77.3-23.8-116-31.5-7.2-1.2-6.8-9.8-13.3-11.6-16.9-2.5-31.1 3.2-46.4 0-9.4-2-14.1-9.5-23.2-10-10.2-0.5-23.3 6.5-34.8 10-36.4 10.9-69.8 22.7-102.7 34.8 23.4-17 58.7-25.8 87.8-34.8 9.7-3 22.4-4.8 28.2-13.3-28.2-8.7-59.8-8.6-89.5-14.9zm-2127.7 125.9c-26.2-21.2-73.1-53.5-114.3-56.3-7.5-0.5-15.87 2.8-23.21 1.7-19.13-3-40.65-22.2-62.97-31.5-23.27-9.7-51.56-23.9-74.57-19.9-9.98 1.7-18.9 13.3-28.17 13.3-14.49-0.2-36.36-17.6-54.68-24.9-28.18-11.2-61.79-21.5-84.51-8.3-18.75-7-40-16.6-61.31-16.6-8.34 0.1-16.42 3.7-24.85 3.4-24.02-0.9-47.2-16.6-74.57-11.6-3.39 1.5-6.56 3.3-9.95 4.9-46.99-8.3-82.78 13.1-117.65 19.9-29.92 5.9-59.93 5.5-89.48 16.6 36.4 16.6 89.87 25 115.99 46.4-21.61-7.1-42.99-17.2-66.27-24.9-17.37-5.7-54.53-21.1-71.26-19.9-7.37 0.6-15.28 8.3-24.85 10-12.49 2.2-29.05-3.4-41.43 0-6.16 1.7-11.92 9.2-18.23 11.6-6.91 2.6-14.42 1.2-21.54 3.3-14.56 4.4-27.68 12.6-43.08 16.6-16.03 4.1-33.398 8.7-49.715 11.6-24.383 4.2-53.644-4.1-69.597 18.2 94.132-3.4 193.62-12.1 289.98-6.6 86.02 4.9 168.16 23.2 248.56 31.4 41.18 4.3 81.01 11.6 119.31 19.9 45.84 10 83.82 32.4 129.25 29.9 21.14 12.5 48.3 33 77.88 26.5 33.29 14.6 68.94 33.9 112.68 38.1 7.45 0.7 15.54-1.2 23.24 0 11.5 1.7 21.3 8.6 33.1 9.9 8.9 1 19.3-1.3 28.2 0 18.8 2.9 38.9 11.5 58 14.9 13.5 2.5 27 0.2 38.1 3.4 19 5.3 33.2 22.7 51.3 26.5 72.2 76 149.4 152.1 210.5 241.9 60.6 89.1 122.8 182.1 165.7 286.7 7.7 18.8 11.6 38.3 24.9 54.7 8-38.9-5.5-67.5-16.6-92.8-38.3-87.3-93.1-168-142.5-238.7-50.3-71.9-107.9-149.7-169-212.1-9.6-9.7-18.3-22.2-26.6-28.1-9.1-6.6-23.3-11.2-34.7-18.3-10.9-6.6-21.1-16.5-31.5-21.5-23.1-11.1-45.8-16.4-66.3-29.8-23.5-15.4-47.1-37.3-63-58-3.1-4.1-13.3-7.9-8.3-14.9 41.2 3 62.2 26.1 106.1 26.5-12.8-17.4-29.1-37.7-48.1-53.1zm1325.7-82.8c3.9 13.8-15.8 23.9-31.5 34.8-12.2 8.4-27.2 12.5-38.1 18.2-8.9 4.6-18.5 15.1-28.2 18.2-35.2 11.5-97.4 15-135.9 11.6-6.7 9.3-6 26.1-9.9 38.2-3 3.6-13.6-0.3-16.6 3.3-20.2 21.5-19.3 52.7-26.5 82.8-9.1 38.4-29.5 73.5-41.4 106.1 50.3-26.4 85.9-67.6 147.5-82.9 13.8-9.9 29.3-18.2 48-23.2 13.6-34.4 51.4-44.7 61.3-82.8 47.8-36 98.5-68.2 132.6-117.7 11.2-16.3 17.8-34.4 31.5-48 12.9-12.9 29.5-19.3 38.1-36.5h-3.3c-51.9 16.6-96.7 40.3-127.6 77.9zm-1382-71.3c36.4 20.1 52.8 59.8 77.9 89.5 36.3 43.1 76.3 73.9 122.6 107.7 11.2 36.3 47.2 47.9 61.3 81.2 18 5.8 34.2 13.3 48.1 23.2 60.3 15.9 97.2 55.3 145.8 82.9-10.5-29.3-24.9-59.6-34.8-92.8-9.9-33.3-11.2-70.2-31.5-96.1-5.2-2.6-15.2-0.3-18.2-5-2.3-13.2-1.9-29-10-36.5-12.2 1.7-22.6 4.7-36.4 3.4-27.6-2.7-79.5-7.1-101.1-15-9.6-3.4-16.3-13.6-24.9-18.2-25.5-13.5-52-24-69.6-41.4-4.2-4.1 3.5-3.5 1.7-9.9-32.8-37.9-76.9-64.5-132.6-79.6-0.1 2.9 0.4 5.2 1.7 6.6zm-109.38 1.7c5.16 3.9 13.99 6.1 21.54 11.6 7.89 5.8 13.61 14.4 19.89 16.6 5.55 1.9 12.25-0.2 18.25 1.6 10.3 3.1 18.9 13 29.8 21.6 11 8.7 24.8 13.7 33.1 19.9 22.4 16.5 40.4 45.3 61.4 67.9 22.5 24.3 45.9 47.1 54.6 74.6 36 13.7 66.2 33.3 102.8 46.4-10.7-25.3-38.3-33.6-44.8-63-57.7-36.7-109.4-79.5-140.8-142.5-16.3-8-36.1-4.4-49.7-14.9-6.2-4.8-7.8-14.5-13.3-18.3-6.9-4.7-16.4-3.2-23.2-8.2-9.3-7.1-11-20.4-16.6-29.9-13.9-6.4-24.72-11.3-36.41-18.2-12.87-7.6-17.45-16.2-28.17-26.5-14.67-14.1-35.19-23.5-51.37-36.5-9.38-7.5-14.75-20.07-26.51-24.82h-3.32c20.85 35.02 60.8 98.62 92.8 122.62zm1675.3-14.9c-5.7 18.1-13.9 33.6-36.5 34.8-10.5 21.4-34.2 29.8-62.9 33.1-33.1 62.5-83.8 107.4-142.5 144.2-6.9 29-34.8 37-44.8 63 35.8-14 66.8-32.7 102.8-46.4 24.2-50.6 69.6-97.5 107.7-132.6 8.6-7.9 15.3-11 26.5-18.2 20.8-13.4 32.5-38.1 64.6-34.8 9.9-14.5 26.2-18.2 39.8-28.2 40.4-29.7 63.5-81.3 92.8-122.62-0.4-1.3-1.4-1.93-3.3-1.66-47.6 36.88-86 82.98-144.2 109.38zm634.7-77.9c-15.3-8.4-33.7-0.5-54.7-6.6-7.7-2.3-13.2-11.16-21.6-14.94-22.8-10.31-44.6-6.82-66.3-3.31-15.7-18.42-41.9-8.13-61.3 0-6.2 0.21-4.6-7.51-9.9-8.29-19.3 14.53-45.5 4.68-71.3 8.29-15.5 2.17-29.4 13.35-44.7 14.95-10.1 1-20.1-2.95-29.8-1.7-11.3 1.5-23.7 9.6-36.5 13.3-41.9 11.9-67.5 26.2-99.4 46.4-23.7 14.9-45.5 31.5-64.6 46.4-38.9-0.8-38.7 37.5-79.6 34.8-47.3 26.8-79.8 63.2-114.3 101-17.2 18.9-39.6 34.2-46.4 59.7 11.3-3.6 18.2-14.6 26.5-23.2 33.9-35.2 78.6-69.7 132.6-82.9 9.9-2.4 21.7 1.7 31.5 0 8.2-1.4 18.9-11.1 29.8-16.5 38.5-19.4 98.8-52.4 135.9-23.2 40.9-15.4 88.4-52.2 140.8-34.8 22-5.8 42.5-18.5 66.3-16.6 5.8 0.5 12 5 18.2 5 10.6-0.1 23.3-6.1 34.8-8.3 12.2-2.3 25.2-6.2 38.1-5 5.7 0.5 10.9 4.1 16.6 5 21.2 3.1 43.5-1.6 64.6 3.3 16 3.7 30.4 12.4 46.4 16.6 40.2 10.3 82.3 12.1 124.3 19.9 9.4 16.5 46.5 2.6 64.6 11.5 6.5 3.2 2.4 9.7 11.6 10 31.6 4.5 62.7 26.7 92.8 21.5-27.8-8.9-42.2-40.5-67.9-53-21.6-10.5-46.3-10.5-72.9-19.9-11.5-25.5-24.4-49.6-59.7-51.3-3.7-25-26.1-31.4-58-28.2-6.3-4.2-8.8-15.6-16.5-19.9zm-2750.8-24.85c-14.31-3.31-24.34-4.94-38.11-3.31-21.18 2.5-33.32 17.56-48.05 21.56-18.24 4.9-38.69-1-53.03 6.6-7.04 3.7-11.09 17.3-18.23 19.9-16.93 6.1-33.57-4.6-46.4 6.6-7.01 6.2-4.91 18.2-14.91 23.2-16.79 2.7-27.43 4.2-38.11 16.6-7.18 8.3-8.3 25-16.57 31.5-8.17 6.3-24.64 7.9-36.46 11.6-12.48 3.8-27.69 4.5-38.11 9.9-11.22 5.8-18.82 18.4-28.17 26.5-12.76 11.1-28.42 16.1-38.11 28.2 33.27 1.8 57.96-19.4 92.8-21.5 9.58-17 37.88-15.2 64.62-15 34.43-19.7 90.36-15 137.54-28.1 16.31-4.6 30.69-13.2 46.39-16.6 21.08-4.5 43.93 0 64.62-3.3 5.77-0.9 10.8-4.5 16.58-5 25.62-2.1 48.92 8.8 72.91 13.3 27.13-12 60.12 5.1 84.51 11.6 50.24-17.2 98.39 19.4 137.53 34.8 51.53-35.3 123.16 20.1 165.71 39.7 65.91-4.1 119.81 38.3 154.11 71.3 12.1 11.7 21.7 26 36.5 33.1-25.2-49.4-68.2-80.9-102.8-120.9-23.3-8.2-36.2-26.8-56.3-38.1h-19.91c-18.89-13.2-30.71-33.4-61.31-34.8-18.13-16-39.72-31.7-62.97-46.4-21.1-13.5-45.55-30-69.59-39.8-10.46-4.3-22.46-3.5-33.14-6.6-11.72-3.5-21.72-11.9-34.81-13.3-9.24-1.01-18.53 2.6-28.17 1.7-15.22-1.5-29.95-12.78-46.4-14.95-28.05-3.71-52.88 5.05-71.25-8.29-3.45 2.62-3.25 8.91-9.94 8.29-19.03-10.77-45.97-16.2-62.97 0zm2253.7-23.2c-35 12.35-72.5 28.13-119.4 31.48-50.6 3.63-111.5-5.22-157.4 8.27-17.8 5.3-39.9 22.4-53 33.2-22.6 18.6-40.7 43.5-51.4 72.9 21.9 39.1-29.2 97.9-36.4 124.2 27.5-17.2 58.4-31 84.5-49.7 20-34.5 50.5-56.8 87.8-74.5 25.7-12.2 55.4-27.6 84.5-24.9-18.6 22.9-49.8 33.1-64.6 59.7 31.4-2.8 39.4-29.1 67.9-34.8 8.6-10.5 6.4-21.2 14.9-29.9 16.6-16.8 53.2-14.3 59.7-41.4-6.9-2.9-9.1 7.3-13.3 1.7 30.2-27.9 79.1-36.9 99.5-74.59-0.4-1.29-1.4-1.93-3.3-1.66zm-1801.3 79.55c-3.82-1.7-5.34-5.7-11.6-5 5.6 27.5 41.28 24.3 57.98 39.8 10.6 9.8 6.7 23.1 18.2 33.1 27.7 5 35.2 30.1 64.7 33.2-13.3-27.7-45.4-36.4-63-59.7 18-5.1 34.8 5.4 51.4 11.6 52.3 19.7 96.4 44.7 120.9 87.8 26.4 17.9 54.5 33.9 84.6 48.1-13.5-29.6-57.3-85.5-36.5-124.3-27.7-55.8-69.8-103.9-145.8-109.35-38-2.72-79.9-0.04-119.34-3.32-44.3-3.68-84.96-21.12-120.96-31.48 19.35 40.25 73.69 45.65 99.42 79.55zm1294.2-81.21c-2.4 7.52-11.2 11.59-14.9 19.89-6.6 14.73-3.7 28.92-6.7 46.42-19.2 13.9-18.2 48-18.2 81.2-33.8 31.5 0.7 91.4-1.6 137.5 16.1 8.3 32.8 0.4 49.7-1.7 21.5-2.6 45.3 1 62.9-6.6 14.1-6 27.7-35 34.8-49.7 10.2-21 18.7-44 18.3-67.9-3.9-7.3-9.5-7.4-11.6-14.9-5-17.5 4-35.4-1.7-53.1-2-6.3-9.4-11.9-11.6-18.2-4.6-12.9-4.3-27.7-11.6-41.43-5.8-10.84-17.4-23.6-26.5-36.45-18-25.47-36.4-51.57-61.3-64.62-0.9 26.12 6.8 48.44 0 69.59zm-886.5-69.59c-39.9 41.37-83.5 78.92-96.2 147.5-16.9 10.6-12.8 42.3-13.2 69.6-24 15.6-2.3 55.5 8.3 77.8 7.1 15.2 15.9 41.1 33.1 49.8 18.5 9.3 42.8 5.6 64.6 8.2 17 2.1 33 10.4 48.1 1.7 0.3-31.2 12-58.7 14.9-84.5 1-9 2.2-22.4 0-31.5-1.8-7.6-12.8-15-14.9-23.2-5.4-21.2 1.6-43-5-61.3-3.3-9.3-12.7-15.8-14.9-24.9-3.3-13.5 0.1-26.11-5-38.06-3-7.04-12.1-12.83-14.9-21.55-6.9-22.13 0.7-45.79 0-69.59h-3.3zm1299.1-251.88c-19.7 11.97-39.4 27.25-58 29.83-6.6 0.92-14.6-1.79-23.2 0-9 1.86-20 11.69-31.5 14.92-6.9 1.93-14.7 1.27-19.9 3.31-18.8 7.48-32.1 28.72-51.3 39.77-9.2 5.28-20.8 11.79-31.5 14.91-12.7 3.67-25.4 2.66-36.5 8.28-43 21.93-59.8 66.76-82.8 104.4 14.4 31.18 24 83.22 3.3 114.34 17.4 16.81 21.9 46.62 33.1 69.62 7.1-5.8 8.7-16.5 11.6-24.9 10-28.65 21.1-51.48 34.8-76.21 19.7-35.53 41.3-80.19 87.8-84.51 29.8-42.29 73.2-90.56 134.3-96.11 6.1-4.9 11.8-10.21 18.2-14.91 10.4-27.24 26-72.82 13.3-102.74zm-1678.6 117.65c69.11 8.19 102.01 52.61 135.91 96.11 28.7 1.19 44.4 19.86 58 36.46 23.4 28.77 44.8 73.54 59.6 109.36 5.8 13.9 6.6 29.6 16.6 39.8 10.7-23.5 15.2-53.31 33.1-69.62-9.2-19.51-15.4-33.73-13.2-56.34 2-20.61 15.9-43.36 14.9-59.66-0.6-10-12.2-24.18-19.9-36.45-15.9-25.39-33.6-47.9-54.7-61.31-13-8.27-25.8-7.86-44.7-13.26-33.6-9.57-55.5-44.27-82.9-54.68-4.6-1.77-9.9-0.13-16.5-1.66-11.8-2.7-23.5-14.39-33.2-16.57-8.1-1.81-17 1.21-24.8 0-25.14-3.9-42.33-25.61-61.35-29.83-4.29 48.11 4.06 97.45 33.14 117.65zm2293.4-180.61c-39.7 17.81-99 34.1-149.2 38.11-29 2.31-47-9-64.6-9.95-39-2.09-55.6 18.48-87.8 21.54-8.7 0.83-15.8-1.94-23.2-1.65-48 1.84-89 24.71-121 43.08-11.5 6.62-21.5 18.62-33.1 21.55-9.1 2.29-19.8 0.01-28.2 1.65-59.7 11.66-92.4 44.78-137.5 76.23-64.5 4.62-97.5 54.9-132.6 94.45-47.4 4.4-65.5 47.63-86.2 86.17-22.2 41.42-50.4 88.06-38.1 135.86 28.4-33.2 53-69.5 99.4-87.81 45.9-18.14 106.6-6.74 164.1-11.6 47.3-3.99 99.7-21.05 132.5-38.11 12-6.19 22.8-18.84 38.2-16.58-27.9 55.05-66.9 98.8-97.8 150.8 34.7-17.8 73-54.1 119.3-69.6 8.5-2.8 19.6-3.3 29.8-6.6 13.5-4.3 24.8-12.21 36.5-13.28 8.3-0.76 17.5 2.53 26.5 1.65 20.1-1.95 37.7-16.2 58-16.56 9.8-0.18 18.7 4.24 28.2 3.31 23.2-2.27 42.8-20.09 69.6-14.91 35.5-21.32 69.3-44.44 94.4-76.23 0.6-6.09-1.4-14.67 1.7-18.22 17.9-21.49 53-42.02 58-74.57 1-6.51-2.9-13.85-1.7-21.55 2.2-13.72 16.2-25.79 21.6-38.11 5.9-13.62 13.1-33.54 11.5-48.05-0.7-7.35-6.7-12.52-6.6-19.89 0.4-26.42 32-60.68 19.9-91.13zm-2933 53.02c4.18 14.29 15.12 28.19 14.91 39.77-0.13 7.28-6.36 15.97-6.63 23.2-1.19 32.11 26.88 56.2 31.49 79.54 1.77 9.02-1.59 18.49 0 26.51 6.22 31.4 45.95 54.24 59.65 74.57 0.56 30.82 26.21 42.76 44.74 57.99 16.66 13.7 34.72 24.53 49.71 33.15 27.18-5.18 46.93 13.44 71.26 14.91 8.36 0.5 17.36-3.54 26.51-3.31 19.86 0.49 38.1 14.68 57.99 16.56 9.85 0.94 19.51-2.65 28.17-1.65 10.59 1.22 22.97 9.18 36.46 13.28 11.32 3.4 23.3 4.3 29.83 6.6 45.59 16.4 82.52 52.3 117.65 69.6-24.97-37.2-51.16-76.7-76.22-112.68-8.49-12.18-19.16-25-21.55-39.76 26.55 8.09 48.17 24.85 77.88 34.79 27.23 9.1 60.41 18.85 92.8 21.54 57.18 4.76 120.08-7.28 165.68 11.6 18 7.41 36.4 22.01 49.7 33.11 8.8 7.3 18.9 17.5 26.6 26.5 7.8 9.3 11.6 23.8 23.2 29.9 5.6-57.3-19-99.37-41.5-140.88-20.2-37.38-40.7-81.61-87.8-82.85-28-40.14-72.6-93.92-132.57-94.45-44.53-36.12-86.8-74.48-164.05-77.88-40.8-24.95-91.02-62.85-154.1-64.63-7.57-0.21-15.69 2.5-23.2 1.65-20.06-2.23-38.86-16.3-59.65-19.88-38.44-6.61-55.68 11.66-92.8 8.29-58.27-5.29-106.64-21.96-152.45-38.11 1.64 16.93 3.18 35.55 8.29 53.02zm1600.7-188.9c-12.1 21.8-54.6 79.89-58 104.39-1.5 10.9 2.9 21.54 1.6 33.14-2.1 20.03-13.8 38.74-18.2 58-4.5 20.28-13.2 42.59-13.2 62.97-0.1 12.61 1.6 26.86 1.6 39.77 0 19.65 6.8 36.71 8.3 54.68 2.9 34.99-1 62.23 5 91.14 2.4 11.47 10.4 22.19 13.2 34.8 6.7 30.07 9.9 50.97 23.2 72.9 5.7 9.33 16.4 16.03 21.6 26.53 3.6 7.4 3.2 15.9 6.6 23.2 5.1 10.8 16.5 17.2 21.5 28.2 2.8 5.9 2.3 12.3 5 18.2 8.9 19.2 27.2 32.4 38.1 53 12.1 23 17.7 48.3 38.1 61.3 10.7-20.3 1.6-60.3 13.3-79.5 24.1 11.2 36.3 34.4 49.7 56.3 34.7 0.5 29.3 25.3 39.8 53 3.3 8.8 11 15.8 13.2 23.2 4.1 13.5 3.6 27.6 8.3 38.2 10-0.6 13.3-7.8 21.6-10-5.4-16.6 11.1-30 13.2-41.4 7.1-39-22.8-78-11.6-116 2.1-7.2 10.9-13.4 13.3-21.5 5.8-19.9-1.9-42.7 6.6-64.7 2.6-6.6 9.3-11.6 11.6-18.2 2.9-8.3 0.9-17.5 3.3-28.17 3.4-15.1 17.4-28.31 19.9-39.76 6.5-29.55-5.7-59.37-1.7-86.17 18.5 15.93 38.6 30.79 54.7 49.71 10.9 12.74 17.5 31.16 33.2 39.77 6.6-16.07 10.7-37.14 6.6-53.03-3.8-14.57-7.6-38.11-13.3-46.4-6.5-9.63-23.1-11.95-26.5-21.53-2.2-6.32 0.8-14.88 0-19.89-4.6-28.43-29.8-47.81-49.7-59.66-7.4-26.79-27.6-40.83-46.4-56.34-11.1-36.02-37.1-58.35-63-81.19-31.9-28.25-64.1-52.1-111-61.32-32.2-32.98-59.9-70.45-77.9-117.64zm-308.2 66.28c-12.1 17.11-30.7 43.92-44.8 51.36-13.5 7.15-31.3 6.27-44.7 13.26-6.4 3.33-12.8 12.08-19.9 16.58-10.1 6.38-19.7 9.93-29.8 18.22-31.4 25.84-66.8 57.07-79.6 96.11-13.8 10.96-29.6 21.45-39.7 38.11-3.8 6.24-3.2 14.46-8.3 19.89-8.6 9.16-22.9 11.79-31.5 23.2-12.5 16.64-15.2 32.58-16.6 57.99-26 7.16-25.4 22.59-33.1 51.38-4.7 17.46-13.2 50.81 3.3 64.62 28.4-30.13 49.2-67.96 87.8-87.82-3.2 20.55-4.1 57.68-3.3 87.82 19.7 16.35 13.9 39.53 21.6 64.62 2 6.6 8.7 11.5 11.6 18.2 7.8 18.7 6.1 41.5 8.2 66.3 32.5 34-1.5 88.2 0 135.9 7.7 11.7 16.1 22.6 15 43.1 10-0.1 11.1 8.7 21.5 8.3 1.5-23 13.8-46.3 19.9-61.4 7.9-19.5 6.9-37 19.9-46.4 6-4.3 15.8-3.9 21.5-8.2 8.7-6.6 13.9-22.5 21.5-31.5 8-9.4 14.8-20.6 28.2-23.2 10.2 20.7 2.6 59.3 13.3 79.5 9.7-1 12.2-12.4 16.5-19.9 4.3-7.3 12-14.2 15-21.5 2.1-5.2 0.8-11.5 3.3-16.6 9-19 29.8-34.4 39.7-54.7 3.6-7.2 3.2-16.6 6.7-23.2 4.3-8 15.3-13.2 19.9-21.5 5-9.1 4.1-20.2 8.2-28.2 7.6-14.5 20-22.67 26.6-34.76 6.1-11.49 14.3-28.31 16.5-46.41 2.6-20.79 7.3-26.09 11.6-39.76 10.7-33.37 4.5-68.85 8.3-107.71 3.1-32.16 11.3-64.99 8.3-97.77-1.7-18.91-8.2-40.78-13.3-61.31-4.3-17.52-17.4-37.45-18.2-56.34-0.4-8.99 4.7-18.82 3.3-28.17-2.5-16.83-18.3-34.59-28.1-53.03-11.3-21.02-22-43.96-33.2-53.02-8.2 23.55-17.3 45.47-33.1 67.94zm810.3 162.39c7.9-22.91 22.1-48.68 21.5-76.22-0.1-6.96-3.9-13.03-3.3-19.89 2.3-28.31 29-59 8.3-87.82 5.3-14.1 17.8-45.35 11.6-66.29-2.5-8.38-11.9-7.7-11.6-16.57 17.5-53.54-35.3-63.68-36.5-109.36-2.5-5.2-10.9-4.5-11.6-11.6 3.2-10.39 1.3-23.96 0-34.8-13.6-9-17.9-27.33-24.8-43.08-15.3-2.26-16.6-16.11-23.2-26.52-6.1-9.48-16.6-17.23-23.2-28.17-26.6-44.21-51.8-88.432-68-137.52-1.6-0.005-3.3-0.005-4.9-0.005-17.7 29.832-36.9 58.152-53.1 89.475-29.6 9.01-34.3 42.96-46.4 69.59-23.6 6.7-22.9 34.39-34.8 49.72-6.5 8.41-18.7 11.31-24.8 18.23-8.5 9.56-10.4 24.35-18.2 36.45-5.1 7.8-15.1 12.81-19.9 19.88-9.8 14.39-6.7 31.91-14.9 49.72-4.7 9.94-17.7 16.2-23.2 28.17-12.7 27.58-6.4 58.13-6.7 94.45-10.7 18.52-10.5 47.99-13.2 74.57 79.5 33.17 145.7 79.6 183.9 154.1 17.3 16.45 36 31.38 44.8 56.34 27.1 17.62 50.5 38.91 49.7 84.52 6.1 2.69 9 8.6 18.2 8.28 28.3-53.46 58.9-104.55 127.6-117.65 5.7-16.21 8.8-46.79-3.3-58zm-868.3-203.82c-5.1-35.6 6.4-69.67-8.3-96.11-6.1-10.96-18.6-16.26-23.2-28.17-6.8-17.65-5.1-32-13.3-44.74-5.4-8.5-15.3-14.48-21.5-24.85-6.3-10.62-8.7-23.95-16.6-33.14-6.8-8-18.5-11.44-24.8-19.89-5.7-7.5-6.6-17.79-11.6-26.52-5.8-10.02-18.5-15.51-24.9-24.84-14.1-20.62-10.2-43.63-29.8-59.66-4.6-3.75-12.1-3.58-16.6-8.29-8.4-8.815-15.6-29.714-24.8-44.729-10-16.254-20.5-36.879-31.5-43.086-24.1 72.574-65.6 127.72-102.8 187.24-18.6 3.04-15.3 21.45-24.8 36.46-3.9 6.07-11.8 10.05-13.3 14.92-3.1 10.61 2.3 22.66 0 34.79-2.1 4.55-10.4 2.83-9.9 9.94-4.7 32.35-26.5 47.51-39.8 71.26-0.5 14.92 0 28.71 3.3 39.77-3.1 4.59-9.3 6.13-11.6 11.6-1.9 29.58 3.5 51.79 11.6 71.25-22.9 26.35 6.9 58.83 8.3 87.83 0.3 5.75-3.2 12.76-3.3 18.22-0.5 28.28 13.9 53.31 21.5 76.23-14.1 10.35-9.2 39.9-3.3 56.34 69.9 12.95 98.5 67.22 129.3 119.3 4.6-3.06 8.5-6.98 14.9-8.28 0.9-44.96 22.6-69.12 51.4-86.17 8.3-24.81 25.4-40.86 44.7-54.68 8.2-31.15 27.3-45.57 49.7-67.94 39.1-39.03 77.7-67.69 132.6-86.17 5-26.84-8.1-53.4-11.6-77.88zm21.5 62.97c14.3-5.07 23.3-21.41 31.5-34.8 7.9-12.81 18.7-26.89 23.2-41.43 3.6-11.68-0.3-25.71 9.9-34.79 16.9 13.26 31.5 36.79 44.8 61.31 10.7 19.8 31.6 48.09 33.1 71.25 0.5 6.96-3.6 15.25-3.3 23.2 0.7 18.16 13.2 38.94 18.2 59.66 4.9 20.08 12.8 43.1 13.3 62.96 0.4 14.37-0.9 31.48-1.7 49.72-0.7 18.79-7.6 36.67-8.2 54.68-1.4 40.1 3.4 82.47-18.3 117.65-1.1 34.09-13 60.43-28.1 82.89-4.9 7.1-12.9 12.9-16.6 19.8-9.3 17.3-7.7 40.1-28.2 49.8-2.7 32.4-31 50.2-44.7 74.5-13.4 23.7-21.9 49.7-41.5 69.6 4.1 9.7 1.9 17.8 8.3 26.5 5.8 7.7 16.7 9.8 21.6 18.3 13.3 23.3 7.3 53 9.9 91.1 8.3 9.2 15.1 11.2 19.9 19.9 9.6 17.3 11.3 45 9.9 66.3-0.5 7.7-4.6 17.1-3.3 24.8 1.9 11.1 11.6 13.9 14.9 23.2 12.3 34.4-4 80.9-13.2 107.7-4.2 12.2-14.6 24.2-16.6 36.5-3.8 23.7 6.3 49.8-3.3 72.9 61.8 91.2 101 205 132.6 326.4 5.4 6.5 10.5-10.2 16.5-3.3 5.9 0.8 5.5 7.8 6.7 13.3 7.1-0.2 12.5-3.8 16.5 1.6-3 16.9-10.9 48.9 1.7 61.4 25.7-3.8 6.1-45.8 9.9-61.4 0.4-7.7 9.2-0.6 13.3-1.6 3.1-3.6 2.2-11 6.6-13.3 7.9-5.8 10.1 5.9 18.2 5 30-121.9 69.2-234.7 131-324.8-7-23.5 1.5-48.9-1.7-72.9-0.9-6.6-6.5-16.3-9.9-24.9-13.9-34.3-42.8-111.6-5-144.1-8.3-41.1-5.8-96.2 26.5-111 2-40.3-4-73 11.6-96.2 9.1-13.5 28.5-17.1 28.2-41.4-16.6-17.9-27.3-40.3-41.5-66.3-11.4-20.9-31.1-38-39.7-56.3-2.7-5.6-2.3-12.7-5-18.2-4.8-9.8-16.7-16.5-21.5-26.5-3.8-7.7-2.9-17.2-6.7-24.9-5.2-10.7-16.1-17.6-21.5-26.51-13.5-22.22-18.9-42.47-23.2-72.91-0.1-0.96-1.1-3.4-1.7-4.97-14.5-40.94-14.2-70.32-18.2-125.94-1.2-16.48-8.3-34.44-8.3-53.02 0-6.52 3.3-12.95 3.3-19.89 0-8.11-3.6-16.23-3.3-24.86 0.8-20.23 8.2-42.44 13.3-62.96 4.4-17.95 17.2-37.71 18.2-56.34 0.5-8.89-4.3-18.63-3.3-28.17 2.5-23.45 23.1-48.48 34.8-69.6 12.6-22.68 23.8-46.42 43.1-59.65 14.3 43.7 28.8 87.21 62.9 111.02-0.8-22.87 11-46 13.3-64.62 4.7-37.37-5.4-63.14 6.6-91.14 5.2-12.04 19.3-18.2 24.9-31.49 4.3-10.23 2.5-20.5 5-28.16 5.8-18.51 19.4-26.96 29.8-43.09 12.9-20.01 18.3-45.58 44.7-56.34 5.8-22.89 18-39.46 34.8-51.38 11.1-26.97 18-58.2 46.4-67.928 8.8-18.043 17.7-31.941 29.8-51.375 6.4-10.175 21.7-46.214 34.8-44.726 12.2 1.367 18.2 37.402 21.6 46.387 18.4 48.597 62.9 104.24 86.1 144.17 4.5 3.85 10.9 5.69 15 9.94 5 9.48 6.9 19.75 13.2 29.83 3.6 5.73 10.5 8.91 13.3 14.91 3.8 8.45-1.4 18.9 1.6 31.48 1.2 5 7.4 10.35 10 16.57 3.3 8.09 3.6 17.81 6.6 24.86 12.9 30.56 45.7 40.47 31.5 82.85 10.6 12.22 12.9 35 8.3 59.65-1.9 9.83-8.2 18.55-8.3 26.52-0.1 7.74 6 15.82 6.6 23.19 2.2 25.39-11.1 45.14-16.6 66.29 8.4 32.98-6.5 67.55-16.5 92.79 10 11.9 9.1 35.06 4.9 53.03 27.8-8.11 40.7-31.15 63-44.74 21.6 4.03 37.5-14.21 54.7-18.23 9.4-2.2 19.4 0.24 28.2-1.66 26.3-5.66 41.6-26.76 67.9-34.8 6.3 29.62 2.2 74.18-6.6 102.74 34.6-15.65 62.4-36.24 101-43.08 7.9-1.38 16.9 0.6 24.9-1.66 12.2-3.43 22.8-16.55 34.8-23.2 12.7-7.02 25.9-12.74 38.1-18.22 24.6-11.01 56-25.39 87.8-24.86 4.1 0.07 11.4 3.69 16.6 3.31 15.6-1.1 30.1-11.14 43.1-14.91 15.5-4.49 32.5-8.6 51.4-6.63 10.6 1.11 20.2 8.37 33.1 9.94 24 2.95 53.5-4.66 77.9-8.28 41.2-6.13 78.8-28.02 111-34.79 7.1 16.3 1.9 39.73-3.3 61.3-3.9 16.04-17.9 31.09-18.2 44.74-0.2 6.86 6 14.38 6.6 21.55 1.2 14.6-5.9 32.52-11.6 46.39-5.4 13.3-17.3 24.21-19.9 36.46-1.8 8.34 1.4 16.73 0 24.86-5.6 32.79-41.2 56.91-59.6 77.87-8.3 50.88-57.3 60.92-86.2 91.14 10.7 17.22 26.2 6.67 43.1 6.63 12.9-0.03 26.3 2.56 36.4 6.63 8.1 3.24 14 12.25 23.2 14.91 30.3 8.77 65-3.21 74.6 26.47 30-4.4 54.3 6.4 61.3 29.9 32.9 3.5 46.9 26 58 51.3 25.1 8.8 49.4 8.5 69.6 18.3 21.6 10.4 34.9 35.8 58 48 19.5 10.3 36.2 12.5 56.3 24.9 22.5 3 52.7 7 49.8 29.8-4.4 7.6-16.3 6.2-23.2 6.6-24.2 1.4-46.8 0-73-1.6-74.5-4.7-143.2-7.2-213.7-3.3-77.6 4.3-148.6 21.8-228.7 28.1-48 3.8-94.8 14.6-139.2 24.9-30.8 7.2-59.3 21.1-89.5 26.5-8.4 1.5-18.1-0.4-26.5 1.7-19.8 4.9-36.9 22.6-58 26.5-8.2 1.5-17.1-1.3-24.8 0-31.1 4.9-59.7 33.1-97.8 33.1 10 15.2 44.4 8.7 48 26.5 2.8 13.2-34.3 51.3-41.4 61.3-18.1 25.5-28.4 45.7-43 59.7-0.2 13.6-5.9 21.7-8.3 33.1 36.9-11.7 100.9-9.2 116 24.9 50.9-3 102.9 4.6 130.9 29.8 38.5 7.4 120.2 16.7 119.3 59.7 43.3 14.1 82.7 32.1 104.4 67.9 24.8 14.9 58.8 23.5 77.8 54.7 3.3 5.3 3 12.8 6.7 18.2 13.4 20.1 50.3 34.2 61.3 58 8.4 18.3 17.4 52.3-3.3 66.3-22.2-16.9-38-39-61.3-54.7-67.5-45.6-147.6-79.7-233.7-109.4-118-40.6-251-54.7-387.7-69.5-33.7-3.7-73.7 0.2-109.4 8.2-3.3 4-1.9 12.5-5 16.6-148.8 119.6-274.4 262.4-369.5 435.8 23.4-7.6 40.6-34.7 74.6-39.8 17.7-10.3 32.5-29.9 56.3-33.1 5.6-0.7 12.6 2.8 18.2 1.7 17.4-3.7 32.6-22.8 59.7-23.2 6.5-0.1 14.9 1.1 23.2 3.3 29.8 7.8 66.1 20 82.8 41.4 6.9 8.8 18.9 31.3 11.6 43.1-9.8 16.1-42 1.9-66.2 5-28.9 3.6-49.9 23.1-74.6 28.1-14.9 22.7-45.4 29.7-76.2 36.5-13.7 20-35.9 31.5-64.6 36.4-8 30.7-48.1 39.8-84.6 41.5-7.2 0.3-15.7-2.9-23.2-1.7-24.3 3.8-54 40.1-56.3 69.6-17.5 25.6-34 52.2-53 76.2 3.3 22.1-4.8 32.9-14.9 41.5 10.6 18.8 3.6 35.4-11.6 44.7-0.2 23.1-5.2 39.5-1.7 58 3.8 20.1 20.8 34.5 9.9 58-17.9 38.8-100.2 33.6-109.3-8.3-3.5-15.8 5.1-33 6.6-49.7 1.7-19.4-1.1-35.3-1.6-56.3-11.5-9.6-25.7-26.4-11.6-43.1-15.9-10.7-10.4-26.1-15-43.1-3.3-12.4-18.9-24.4-28.1-38.1-12.7-18.7-24-34.9-26.5-54.7-11.3-24.1-29.6-41.1-51.4-54.7-46.9 2.8-100.4-1-111-39.8-29.2-4.5-51.2-16.2-64.7-36.4-28-8.4-62.9-10-72.9-36.5-27.7-3.2-47.8-24.3-77.9-28.1-23.1-3-59.6 11.5-67.9-5-5.4-10.8 6.7-34.6 13.3-43.1 26.4-34.3 122.9-63.3 162.4-21.5 34.9-5.1 56.9 15.6 76.2 31.4 33.2 5.5 50.3 27 74.5 41.5-16.6-45.4-49.8-83.3-76.2-124.3-77.9-121.4-183.5-223.6-293.3-314.8-1.4-4.2-2.1-8.9-1.6-15-36.1-6.8-73.2-12.3-109.4-8.2-135.49 15.1-271.21 27.6-389.41 67.9-56.59 19.3-111.67 43.3-160.73 67.9-50.56 25.4-97.5 56.3-130.91 97.8-27.24-9.1-14.89-46.4-6.63-64.6 11.12-24.6 42.22-42.8 59.65-56.4 11.73-42.9 51.63-57.7 86.17-77.9 22.68-32.5 57.55-52.9 101.08-64.6 5.29-36.7 52.28-48.1 89.48-56.3 10.11-2.3 22.35-1.6 31.49-5 11.73-4.3 21.51-15.1 36.45-19.9 24.76-7.9 60.52-12.7 94.46-9.9 17.71-30.9 76.36-40.2 117.6-23.2-2.8-27.8-16.2-40.1-31.44-63-14.94-22.4-23.87-38-41.42-61.3-7.94-10.5-22.51-21.5-21.55-29.8 2.1-18.2 37.73-14.1 49.71-26.5-13.44-8.3-26.41-5.2-41.42-10-18.45-5.8-35.57-21.3-54.69-24.8-8.01-1.5-16.8 1.3-24.85 0-21.32-3.5-40.55-18.3-58-26.5-51.87-1.6-88.35-23.6-135.87-33.2-43.89-8.9-85.39-14.5-137.54-19.9-71.05-7.2-139.26-23.7-210.45-28.1-70.19-4.4-140-1.4-215.41 3.3-31.719 1.9-64.305 4.1-97.77-3.3 3.6211-32.1 28.766-25.2 49.711-31.5 18.547-5.6 36.746-15.4 53.029-23.2 26.12-12.5 39.54-38.4 62.97-49.7 21.78-10.6 47.61-10.3 69.59-18.3 9.79-26.1 25.07-46.7 56.34-51.3 9.06-20.5 29.83-35.4 59.66-29.9 14.08-20.7 42.47-27.08 77.88-26.47 15.31-10.79 31.28-21.03 56.34-21.54 18.32-0.37 37.22 8.92 46.39-4.97-3.22-10.44-16.38-12.12-24.86-18.23-13.28-9.58-53.07-38.98-59.64-56.33-1.8-4.76-1.95-10.82-1.66-16.58-9.19-11.3-21.75-21.42-33.14-34.8-8.88-10.42-23.34-25.87-26.52-41.42-1.61-7.85 1.76-17.92 0-26.52-2.57-12.55-14.38-24.9-19.88-38.11-5.75-13.82-12.28-29.67-11.6-44.74 0.32-7.26 4.96-14.72 4.97-21.54 0.02-13.76-10.62-26.79-14.91-41.42-6.6-22.49-11.29-45.02-6.63-66.28 34.73 6.6 70.5 28.43 111.02 34.79 11.81 1.85 24.55 2.67 38.11 4.97 12.42 2.11 28.11 4.63 39.77 3.31 10.98-1.23 20.57-8.43 31.49-9.94 36.01-4.99 64.87 12.77 96.11 21.54 72.86-5.65 130.54 31.57 177.3 62.97 54.14 2.21 88.11 24.57 124.28 44.74-1.54-27.44-12.59-73.62-3.31-102.74 25.67 8.46 41.62 29.15 67.89 34.8 7.8 1.67 16.6-0.05 24.9 1.66 19 3.9 35.4 21.05 58 18.23 20.9 13.9 35 34.6 59.7 44.74 3.2-16.05-3.8-39.46 6.6-51.37-4.6-21.17-16.6-42.55-18.2-69.6-0.5-8.05 2.3-16.49 1.6-24.85-2.6-30.85-28.6-60.67-8.3-87.82-9-22.9-19.1-65.26-1.6-86.17-9.1-42.26 16.7-60.89 33.1-82.85 3.1-16.22 6-32.71 16.6-41.43-1.2-9.54-3.4-20.12 0-29.83 2-5.84 9.8-8.69 14.9-16.56 10.1-15.83 7.6-37.52 28.2-39.78 25.5-44.33 57.4-87.15 81.2-135.87 9.3-19.183 9.9-42.863 24.8-56.339 16.8 2.6795 25.6 29.484 34.8 44.726 10.7 17.793 24.1 31.993 28.2 48.051 33.1 10.102 33.7 45.792 48 69.592 5.9 9.7 19.9 16.88 26.6 28.19 5.2 8.92 6.6 20.42 11.6 26.51 8.1 10 20 13.32 26.5 21.54 7.3 9.43 9.4 22.16 16.5 33.14 10.9 16.66 24.4 24.96 29.9 43.09 2.4 8.27 1 17.1 4.9 26.51 4.2 10.1 15.7 17.24 21.6 28.17 14.9 27.63 5 60.73 9.9 96.11 3.3 23.39 14.1 41.9 11.6 64.62" style="fill: inherit;"></path>
  <path d="m1047.3 1436.7c11 4.5 23.2 22.1 28.1 38.1-10.4-11.7-17.6-26.6-28.1-38.1" style="fill: inherit;"></path>
  <path d="m1594.1 1488.1c-2.4-11.1 7.7-37.3 14.9-49.7 2.6-2.8-2.6 14.9-5 23.2-2.9 10.1-6.3 20.9-9.9 26.5" style="fill: inherit;"></path>
  <path d="m2593.3 1435c-3.5 11.5-19.1 25.1-24.9 39.8-0.4-15.3 14.8-29.4 24.9-39.8" style="fill: inherit;"></path>
  <path d="m1093.7 1454.9c14.7 9.1 29.6 41 31.4 63-12-19.5-18.8-44.1-31.4-63" style="fill: inherit;"></path>
  <path d="m2585 1499.7c-15.1 18.6-45.6 36.1-66.3 54.7 16.5-23.9 43.4-37.4 66.3-54.7" style="fill: inherit;"></path>
  <path d="m593.23 1768.1c-0.46 7.9-24.26 6.7-38.12 6.6 6.96-7.9 27.83-1.9 38.12-6.6" style="fill: inherit;"></path>
  <path d="m3047.3 1769.8c7.9 0.4 32.8-1.9 39.8 4.9-15 0.1-30.8 1-39.8-4.9" style="fill: inherit;"></path>
  <path d="m1769.7 2106.2c4.5 10.2-5.5 23.2-11.6 34.8-8.1 15.3-15.9 30-26.5 41.4 7.1-24.5 28.5-48.9 38.1-76.2" style="fill: inherit;"></path>
 
</svg>